<svg width="65" height="64" viewBox="0 0 65 64" fill="none" xmlns="http://www.w3.org/2000/svg">
<rect x="4.5" y="4" width="56" height="56" rx="28" stroke="url(#paint0_linear_1_846)" stroke-width="8"/>
<path d="M36.59 32.3999V36.4699C36.59 36.8299 36.55 37.1699 36.46 37.4799C36.09 38.9499 34.87 39.8699 33.19 39.8699H30.47L27.45 41.8799C27 42.1899 26.4 41.8599 26.4 41.3199V39.8699C25.38 39.8699 24.53 39.5299 23.94 38.9399C23.34 38.3399 23 37.4899 23 36.4699V32.3999C23 30.4999 24.18 29.1899 26 29.0199C26.13 29.0099 26.26 28.9999 26.4 28.9999H33.19C35.23 28.9999 36.59 30.3599 36.59 32.3999Z" fill="#0E0F11"/>
<path d="M38.75 35.6001C40.02 35.6001 41.09 35.1801 41.83 34.4301C42.58 33.6901 43 32.6201 43 31.3501V26.2501C43 23.9001 41.1 22.0001 38.75 22.0001H30.25C27.9 22.0001 26 23.9001 26 26.2501V27.0001C26 27.2801 26.22 27.5001 26.5 27.5001H33.19C35.9 27.5001 38.09 29.6901 38.09 32.4001V35.1001C38.09 35.3801 38.31 35.6001 38.59 35.6001H38.75Z" fill="#0E0F11"/>
<defs>
<linearGradient id="paint0_linear_1_846" x1="32.5" y1="0" x2="32.5" y2="64" gradientUnits="userSpaceOnUse">
<stop offset="0.355133" stop-color="#F3F7FB"/>
<stop offset="1" stop-color="#F3F7FB" stop-opacity="0.1"/>
</linearGradient>
</defs>
</svg>
