<svg width="72" height="72" viewBox="0 0 72 72" fill="none" xmlns="http://www.w3.org/2000/svg">
<rect x="5" y="5" width="62" height="62" rx="31" stroke="url(#paint0_linear_1_428)" stroke-width="10"/>
<path d="M39.59 36.4V40.47C39.59 40.83 39.55 41.17 39.46 41.48C39.09 42.95 37.87 43.87 36.19 43.87H33.47L30.45 45.88C30 46.19 29.4 45.86 29.4 45.32V43.87C28.38 43.87 27.53 43.53 26.94 42.94C26.34 42.34 26 41.49 26 40.47V36.4C26 34.5 27.18 33.19 29 33.02C29.13 33.01 29.26 33 29.4 33H36.19C38.23 33 39.59 34.36 39.59 36.4Z" fill="#0E0F11"/>
<path d="M41.75 39.6C43.02 39.6 44.09 39.18 44.83 38.43C45.58 37.69 46 36.62 46 35.35V30.25C46 27.9 44.1 26 41.75 26H33.25C30.9 26 29 27.9 29 30.25V31C29 31.28 29.22 31.5 29.5 31.5H36.19C38.9 31.5 41.09 33.69 41.09 36.4V39.1C41.09 39.38 41.31 39.6 41.59 39.6H41.75Z" fill="#0E0F11"/>
<defs>
<linearGradient id="paint0_linear_1_428" x1="36" y1="0" x2="36" y2="72" gradientUnits="userSpaceOnUse">
<stop offset="0.355133" stop-color="#F3F7FB"/>
<stop offset="1" stop-color="#F3F7FB" stop-opacity="0.1"/>
</linearGradient>
</defs>
</svg>
