<svg width="72" height="72" viewBox="0 0 72 72" fill="none" xmlns="http://www.w3.org/2000/svg">
<rect x="5" y="5" width="62" height="62" rx="31" stroke="url(#paint0_linear_1_492)" stroke-width="10"/>
<path d="M45.5299 34.87L44.0099 33.35C43.7499 33.09 43.5399 32.58 43.5399 32.22V30.06C43.5399 29.18 42.8199 28.46 41.9399 28.46H39.7899C39.4299 28.46 38.9199 28.25 38.6599 27.99L37.1399 26.47C36.5199 25.85 35.4999 25.85 34.8799 26.47L33.3399 27.99C33.0899 28.25 32.5799 28.46 32.2099 28.46H30.0599C29.1799 28.46 28.4599 29.18 28.4599 30.06V32.21C28.4599 32.57 28.2499 33.08 27.9899 33.34L26.4699 34.86C25.8499 35.48 25.8499 36.5 26.4699 37.12L27.9899 38.64C28.2499 38.9 28.4599 39.41 28.4599 39.77V41.92C28.4599 42.8 29.1799 43.52 30.0599 43.52H32.2099C32.5699 43.52 33.0799 43.73 33.3399 43.99L34.8599 45.51C35.4799 46.13 36.4999 46.13 37.1199 45.51L38.6399 43.99C38.8999 43.73 39.4099 43.52 39.7699 43.52H41.9199C42.7999 43.52 43.5199 42.8 43.5199 41.92V39.77C43.5199 39.41 43.7299 38.9 43.9899 38.64L45.5099 37.12C46.1599 36.51 46.1599 35.49 45.5299 34.87ZM31.9999 33C31.9999 32.45 32.4499 32 32.9999 32C33.5499 32 33.9999 32.45 33.9999 33C33.9999 33.55 33.5599 34 32.9999 34C32.4499 34 31.9999 33.55 31.9999 33ZM33.5299 39.53C33.3799 39.68 33.1899 39.75 32.9999 39.75C32.8099 39.75 32.6199 39.68 32.4699 39.53C32.1799 39.24 32.1799 38.76 32.4699 38.47L38.4699 32.47C38.7599 32.18 39.2399 32.18 39.5299 32.47C39.8199 32.76 39.8199 33.24 39.5299 33.53L33.5299 39.53ZM38.9999 40C38.4399 40 37.9899 39.55 37.9899 39C37.9899 38.45 38.4399 38 38.9899 38C39.5399 38 39.9899 38.45 39.9899 39C39.9899 39.55 39.5499 40 38.9999 40Z" fill="#0E0F11"/>
<defs>
<linearGradient id="paint0_linear_1_492" x1="36" y1="0" x2="36" y2="72" gradientUnits="userSpaceOnUse">
<stop offset="0.355133" stop-color="#F3F7FB"/>
<stop offset="1" stop-color="#F3F7FB" stop-opacity="0.1"/>
</linearGradient>
</defs>
</svg>
